# xmcd CD database file generated by Grip 3.2.0
# 
# Track frame offsets:
#       150
#       16970
#       32553
#       49040
#       71740
#       85823
#       99688
#       113823
#       126400
#       141153
#       158955
#       179185
#       194050
# 
# Disc length: 2786 seconds
# 
# Revision: 5
# Processed by: cddbd v1.5.1PL2 Copyright (c) Steve Scherf et al.
# Submitted via: Grip 3.2.0
# 
DISCID=c00ae00d
DTITLE=Alison Krauss and Union Station - Live [CD1]
DYEAR=2002
DGENRE=Country
TTITLE0=Let Me Touch You For Awhile
TTITLE1=Choctaw Hayride
TTITLE2=The Lucky One
TTITLE3=Baby, Now That I've Found You
TTITLE4=Bright Sunny South
TTITLE5=Every Time You Say Goodbye
TTITLE6=Tiny Broken Heart
TTITLE7=Cluck Old Hen
TTITLE8=Stay
TTITLE9=Broadway
TTITLE10=Ghost In This House
TTITLE11=Forget About It
TTITLE12=Faraway Land
EXTD=YEAR: 2002
EXTT0=
EXTT1=
EXTT2=
EXTT3=
EXTT4=
EXTT5=
EXTT6=
EXTT7=
EXTT8=
EXTT9=
EXTT10=
EXTT11=
EXTT12=
PLAYORDER=
